<svg version="1.1" id="Layer_1" xmlns="http://www.w3.org/2000/svg" xmlns:xlink="http://www.w3.org/1999/xlink" x="0px" y="0px"
	 width="100%" viewBox="0 0 500 500" enable-background="new 0 0 500 500" xml:space="preserve">
<path fill="#000000" opacity="1.000000" stroke="none" 
	d="
M458.000000,501.000000 
	C305.333374,501.000000 153.166733,501.000000 1.000082,501.000000 
	C1.000054,334.333405 1.000054,167.666824 1.000027,1.000171 
	C167.666550,1.000114 334.333099,1.000114 500.999756,1.000057 
	C500.999817,167.666519 500.999817,334.333038 500.999908,500.999756 
	C486.833344,501.000000 472.666656,501.000000 458.000000,501.000000 
M264.757141,258.538513 
	C268.705383,258.093445 272.645966,257.555481 276.604065,257.229858 
	C280.449066,256.913483 284.323181,256.535126 288.164429,256.688019 
	C293.560944,256.902802 298.949066,258.059662 304.322205,257.944733 
	C311.154449,257.798615 317.965759,256.308594 324.790344,256.275696 
	C331.682159,256.242462 338.576355,257.320648 345.475891,257.824097 
	C347.111237,257.943451 348.771576,257.677338 350.421448,257.649200 
	C353.389404,257.598511 356.494659,257.017944 359.299683,257.683136 
	C366.325897,259.349335 372.069916,255.094406 371.955444,247.843811 
	C371.902924,244.515121 371.947174,241.184845 371.954895,237.855301 
	C371.972748,230.145737 368.195892,223.813553 360.736542,222.276382 
	C354.464264,220.983826 347.595367,220.753189 341.316895,221.876358 
	C335.827484,222.858383 331.095154,224.001678 325.264374,222.361603 
	C312.983643,218.907272 300.212341,223.067902 287.552917,221.315262 
	C280.508087,220.339920 273.169373,222.799728 265.699066,221.218674 
	C258.688690,219.734940 253.293945,224.491470 248.090958,228.885681 
	C243.090729,222.072891 236.279617,220.684387 228.611969,221.035141 
	C218.363586,221.503967 208.099762,221.827057 197.841995,221.842590 
	C188.319626,221.857010 178.796814,221.373108 169.273621,221.131653 
	C162.320587,220.955338 155.563690,222.318481 148.365219,221.348511 
	C134.446838,219.472992 125.365379,230.845673 129.010956,245.419205 
	C131.302750,254.580902 141.009827,259.262115 152.417297,258.186737 
	C161.155487,257.362976 170.038757,258.085938 178.857529,258.106049 
	C184.117142,258.118011 189.376816,258.091278 194.636444,258.100739 
	C198.213684,258.107178 201.791550,258.202515 205.367935,258.158936 
	C212.879715,258.067413 220.391083,257.925537 227.901428,257.753296 
	C228.532654,257.738800 229.148712,257.174652 229.782730,257.150299 
	C231.988495,257.065613 234.373291,256.565704 236.372147,257.209900 
	C240.767258,258.626465 244.380463,258.228302 247.858749,254.967911 
	C248.814606,254.071960 251.051453,253.857056 252.445663,254.245163 
	C256.358459,255.334305 260.138336,256.901001 264.757141,258.538513 
z"/>
<path fill="#464646" opacity="1.000000" stroke="none" 
	d="
M264.363892,258.408936 
	C260.138336,256.901001 256.358459,255.334305 252.445663,254.245163 
	C251.051453,253.857056 248.814606,254.071960 247.858749,254.967911 
	C244.380463,258.228302 240.767258,258.626465 236.372147,257.209900 
	C234.373291,256.565704 231.988495,257.065613 229.782730,257.150299 
	C229.148712,257.174652 228.532654,257.738800 227.901428,257.753296 
	C220.391083,257.925537 212.879715,258.067413 205.367935,258.158936 
	C201.791550,258.202515 198.213684,258.107178 194.636444,258.100739 
	C189.376816,258.091278 184.117142,258.118011 178.857529,258.106049 
	C170.038757,258.085938 161.155487,257.362976 152.417297,258.186737 
	C141.009827,259.262115 131.302750,254.580902 129.010956,245.419205 
	C125.365379,230.845673 134.446838,219.472992 148.365219,221.348511 
	C155.563690,222.318481 162.320587,220.955338 169.273621,221.131653 
	C178.796814,221.373108 188.319626,221.857010 197.841995,221.842590 
	C208.099762,221.827057 218.363586,221.503967 228.611969,221.035141 
	C236.279617,220.684387 243.090729,222.072891 248.090958,228.885681 
	C253.293945,224.491470 258.688690,219.734940 265.699066,221.218674 
	C273.169373,222.799728 280.508087,220.339920 287.552917,221.315262 
	C300.212341,223.067902 312.983643,218.907272 325.264374,222.361603 
	C331.095154,224.001678 335.827484,222.858383 341.316895,221.876358 
	C347.595367,220.753189 354.464264,220.983826 360.736542,222.276382 
	C368.195892,223.813553 371.972748,230.145737 371.954895,237.855301 
	C371.947174,241.184845 371.902924,244.515121 371.955444,247.843811 
	C372.069916,255.094406 366.325897,259.349335 359.299683,257.683136 
	C356.494659,257.017944 353.389404,257.598511 350.421448,257.649200 
	C348.771576,257.677338 347.111237,257.943451 345.475891,257.824097 
	C338.576355,257.320648 331.682159,256.242462 324.790344,256.275696 
	C317.965759,256.308594 311.154449,257.798615 304.322205,257.944733 
	C298.949066,258.059662 293.560944,256.902802 288.164429,256.688019 
	C284.323181,256.535126 280.449066,256.913483 276.604065,257.229858 
	C272.645966,257.555481 268.705383,258.093445 264.363892,258.408936 
M176.570984,248.667084 
	C177.341461,249.020203 178.111923,249.373306 180.422134,250.432114 
	C177.095612,245.684814 176.985397,242.574188 179.529892,238.690414 
	C181.548615,235.609131 180.134933,231.167740 176.108704,230.255417 
	C172.234192,229.377472 167.964111,230.245316 163.867828,230.346085 
	C163.040253,236.784256 162.579773,243.202972 164.376068,250.312973 
	C166.121429,247.692566 166.926880,245.062973 168.610809,244.247589 
	C172.237900,242.491302 174.335632,245.388733 176.570984,248.667084 
M142.149506,248.648636 
	C149.551666,251.227936 155.787964,249.072006 157.995346,243.170639 
	C159.832809,238.258240 157.806686,232.885773 153.188278,230.424210 
	C147.976822,227.646545 141.156754,229.236099 138.159805,233.926941 
	C135.151489,238.635498 136.419327,244.098602 142.149506,248.648636 
M292.543457,248.565689 
	C293.393951,248.061127 294.942261,247.603867 294.980194,247.044266 
	C295.204041,243.740494 295.729126,240.231445 294.871246,237.148041 
	C294.120178,234.448563 292.159851,231.004333 289.863800,230.101578 
	C287.251892,229.074677 283.209900,229.648178 280.621399,231.055817 
	C276.276154,233.418777 275.548309,245.030609 279.347992,250.038177 
	C279.315399,242.809998 284.147858,244.126419 288.324097,244.004395 
	C291.154724,243.921692 292.204834,245.288269 292.543457,248.565689 
M363.818909,236.263367 
	C362.993103,232.236557 360.574951,229.302689 356.507416,229.353180 
	C353.649323,229.388657 350.265991,230.493622 348.097382,232.298645 
	C345.015198,234.864044 345.077026,245.363480 348.162018,250.787811 
	C348.349731,245.565323 350.409180,244.041763 354.807404,243.762665 
	C359.737762,243.449814 361.150269,246.075562 362.245544,250.064163 
	C362.806305,249.892868 363.367065,249.721573 363.927826,249.550278 
	C363.927826,245.408035 363.927826,241.265778 363.818909,236.263367 
M218.658508,236.328674 
	C215.116074,229.531052 208.749298,227.208542 202.560394,230.456284 
	C197.533417,233.094284 195.589081,239.110962 198.141434,244.130753 
	C200.873306,249.503586 208.148605,251.610367 213.696854,248.527496 
	C218.192810,246.029297 219.634567,242.044769 218.658508,236.328674 
M313.603333,232.788177 
	C314.439484,236.346390 315.342896,239.890640 316.085175,243.468338 
	C316.495575,245.446564 316.635864,247.480804 316.897919,249.489807 
	C317.623260,249.411514 318.348572,249.333237 319.073914,249.254944 
	C319.073914,245.213638 319.247406,241.163086 319.032959,237.133194 
	C318.716644,231.189041 314.737793,228.195282 308.889923,229.143814 
	C306.726471,229.494720 304.536987,229.685074 302.156036,229.973267 
	C300.336243,235.453354 300.879669,246.567581 304.399231,250.424149 
	C304.399231,245.810165 304.215149,242.413437 304.440155,239.044006 
	C304.828186,233.232483 306.873779,231.721283 313.603333,232.788177 
M233.403061,231.984055 
	C238.131149,232.402771 238.672485,235.865479 238.781799,239.528473 
	C238.879623,242.806320 238.802399,246.089386 238.802399,249.370148 
	C239.652542,249.361252 240.502686,249.352341 241.352829,249.343445 
	C241.962845,243.963715 242.981918,238.343140 240.568069,233.198944 
	C237.049759,225.700974 229.997101,231.034363 224.239716,229.329605 
	C223.891663,236.266678 223.702835,242.843735 224.378555,250.414505 
	C225.958252,249.123917 226.406693,248.936050 226.421448,248.718719 
	C226.645050,245.426788 226.862518,242.132782 226.978439,238.835632 
	C227.110229,235.086777 228.379105,232.348160 233.403061,231.984055 
M257.283875,239.500000 
	C258.900208,232.692276 259.006348,232.643433 273.097260,232.707916 
	C269.366516,228.790924 265.632294,228.410172 261.516724,229.730881 
	C256.713745,231.272171 253.814453,235.639679 254.269226,240.385941 
	C254.728012,245.174088 258.250854,248.884583 263.196686,249.788956 
	C267.469391,250.570251 270.483490,249.284531 271.876892,246.086197 
	C260.821381,247.422287 259.582001,246.926071 257.283875,239.500000 
M329.938965,246.532394 
	C331.020081,247.609161 332.101196,248.685913 333.182312,249.762680 
	C334.106506,248.689819 335.309845,247.751373 335.903168,246.519196 
	C337.771118,242.639938 339.459351,238.670898 341.113678,234.693558 
	C341.786285,233.076447 342.192352,231.348465 342.719696,229.670944 
	C342.162292,229.450943 341.604889,229.230942 341.047455,229.010956 
	C338.510498,234.124893 335.973541,239.238846 333.010651,245.211411 
	C329.972443,239.104446 327.434875,234.003738 324.897308,228.903046 
	C324.165588,229.242279 323.433899,229.581512 322.702179,229.920746 
	C325.011688,235.228424 327.321167,240.536102 329.938965,246.532394 
M191.388199,246.790054 
	C189.761673,240.920029 188.500137,235.092453 194.045807,229.477341 
	C190.307190,229.477341 187.270142,229.477341 183.919174,229.477341 
	C188.951584,236.432617 188.356064,242.927582 183.907806,249.936005 
	C186.813400,249.936005 189.289383,250.175110 191.697235,249.872330 
	C194.389343,249.533844 193.721527,248.318680 191.388199,246.790054 
z"/>
<path fill="#080808" opacity="1.000000" stroke="none" 
	d="
M176.350769,248.396454 
	C174.335632,245.388733 172.237900,242.491302 168.610809,244.247589 
	C166.926880,245.062973 166.121429,247.692566 164.376068,250.312973 
	C162.579773,243.202972 163.040253,236.784256 163.867828,230.346085 
	C167.964111,230.245316 172.234192,229.377472 176.108704,230.255417 
	C180.134933,231.167740 181.548615,235.609131 179.529892,238.690414 
	C176.985397,242.574188 177.095612,245.684814 180.422134,250.432114 
	C178.111923,249.373306 177.341461,249.020203 176.350769,248.396454 
M173.839294,232.197464 
	C171.220016,232.137772 167.769669,230.306946 166.730499,234.218414 
	C166.227585,236.111450 167.442932,238.460983 167.880295,240.603821 
	C170.649384,240.027481 173.418488,239.451157 176.187576,238.874832 
	C175.665375,236.742691 175.143188,234.610550 173.839294,232.197464 
z"/>
<path fill="#060606" opacity="1.000000" stroke="none" 
	d="
M141.817596,248.453491 
	C136.419327,244.098602 135.151489,238.635498 138.159805,233.926941 
	C141.156754,229.236099 147.976822,227.646545 153.188278,230.424210 
	C157.806686,232.885773 159.832809,238.258240 157.995346,243.170639 
	C155.787964,249.072006 149.551666,251.227936 141.817596,248.453491 
M155.638306,239.499207 
	C154.209045,233.660248 150.909088,231.134430 145.925293,232.064743 
	C141.668594,232.859329 139.088501,236.547852 139.845139,240.877609 
	C140.509933,244.681839 142.998306,246.680786 146.686157,247.004379 
	C151.585785,247.434311 154.555008,245.038925 155.638306,239.499207 
z"/>
<path fill="#060606" opacity="1.000000" stroke="none" 
	d="
M292.418884,248.204498 
	C292.204834,245.288269 291.154724,243.921692 288.324097,244.004395 
	C284.147858,244.126419 279.315399,242.809998 279.347992,250.038177 
	C275.548309,245.030609 276.276154,233.418777 280.621399,231.055817 
	C283.209900,229.648178 287.251892,229.074677 289.863800,230.101578 
	C292.159851,231.004333 294.120178,234.448563 294.871246,237.148041 
	C295.729126,240.231445 295.204041,243.740494 294.980194,247.044266 
	C294.942261,247.603867 293.393951,248.061127 292.418884,248.204498 
M280.761047,235.505035 
	C279.901520,240.951416 280.692993,241.760849 287.478149,241.132782 
	C289.037384,240.988449 291.852051,239.008377 291.733734,238.649445 
	C290.991455,236.397491 289.939209,233.032974 288.304810,232.595718 
	C286.238800,232.042984 283.519165,233.933594 280.761047,235.505035 
z"/>
<path fill="#050505" opacity="1.000000" stroke="none" 
	d="
M363.873352,236.693451 
	C363.927826,241.265778 363.927826,245.408035 363.927826,249.550278 
	C363.367065,249.721573 362.806305,249.892868 362.245544,250.064163 
	C361.150269,246.075562 359.737762,243.449814 354.807404,243.762665 
	C350.409180,244.041763 348.349731,245.565323 348.162018,250.787811 
	C345.077026,245.363480 345.015198,234.864044 348.097382,232.298645 
	C350.265991,230.493622 353.649323,229.388657 356.507416,229.353180 
	C360.574951,229.302689 362.993103,232.236557 363.873352,236.693451 
M349.909546,234.598129 
	C348.229980,240.669037 348.952087,241.519638 355.878693,241.250381 
	C358.051544,241.165924 360.917389,241.825958 360.865967,238.131958 
	C360.822205,234.986938 359.589447,232.351059 356.201050,232.175873 
	C354.284485,232.076752 352.299683,233.296555 349.909546,234.598129 
z"/>
<path fill="#050505" opacity="1.000000" stroke="none" 
	d="
M218.760635,236.719421 
	C219.634567,242.044769 218.192810,246.029297 213.696854,248.527496 
	C208.148605,251.610367 200.873306,249.503586 198.141434,244.130753 
	C195.589081,239.110962 197.533417,233.094284 202.560394,230.456284 
	C208.749298,227.208542 215.116074,229.531052 218.760635,236.719421 
M200.188980,241.057922 
	C201.515335,245.560486 204.652771,247.470093 209.174011,247.011353 
	C212.859680,246.637390 215.235291,244.489517 215.915085,240.809631 
	C216.720779,236.448105 213.734589,232.549423 209.325897,231.980270 
	C204.041077,231.298019 200.717422,234.287048 200.188980,241.057922 
z"/>
<path fill="#070707" opacity="1.000000" stroke="none" 
	d="
M313.246948,232.589966 
	C306.873779,231.721283 304.828186,233.232483 304.440155,239.044006 
	C304.215149,242.413437 304.399231,245.810165 304.399231,250.424149 
	C300.879669,246.567581 300.336243,235.453354 302.156036,229.973267 
	C304.536987,229.685074 306.726471,229.494720 308.889923,229.143814 
	C314.737793,228.195282 318.716644,231.189041 319.032959,237.133194 
	C319.247406,241.163086 319.073914,245.213638 319.073914,249.254944 
	C318.348572,249.333237 317.623260,249.411514 316.897919,249.489807 
	C316.635864,247.480804 316.495575,245.446564 316.085175,243.468338 
	C315.342896,239.890640 314.439484,236.346390 313.246948,232.589966 
z"/>
<path fill="#050505" opacity="1.000000" stroke="none" 
	d="
M232.999008,231.984344 
	C228.379105,232.348160 227.110229,235.086777 226.978439,238.835632 
	C226.862518,242.132782 226.645050,245.426788 226.421448,248.718719 
	C226.406693,248.936050 225.958252,249.123917 224.378555,250.414505 
	C223.702835,242.843735 223.891663,236.266678 224.239716,229.329605 
	C229.997101,231.034363 237.049759,225.700974 240.568069,233.198944 
	C242.981918,238.343140 241.962845,243.963715 241.352829,249.343445 
	C240.502686,249.352341 239.652542,249.361252 238.802399,249.370148 
	C238.802399,246.089386 238.879623,242.806320 238.781799,239.528473 
	C238.672485,235.865479 238.131149,232.402771 232.999008,231.984344 
z"/>
<path fill="#060606" opacity="1.000000" stroke="none" 
	d="
M257.301025,239.878601 
	C259.582001,246.926071 260.821381,247.422287 271.876892,246.086197 
	C270.483490,249.284531 267.469391,250.570251 263.196686,249.788956 
	C258.250854,248.884583 254.728012,245.174088 254.269226,240.385941 
	C253.814453,235.639679 256.713745,231.272171 261.516724,229.730881 
	C265.632294,228.410172 269.366516,228.790924 273.097260,232.707916 
	C259.006348,232.643433 258.900208,232.692276 257.301025,239.878601 
z"/>
<path fill="#060606" opacity="1.000000" stroke="none" 
	d="
M329.784790,246.188080 
	C327.321167,240.536102 325.011688,235.228424 322.702179,229.920746 
	C323.433899,229.581512 324.165588,229.242279 324.897308,228.903046 
	C327.434875,234.003738 329.972443,239.104446 333.010651,245.211411 
	C335.973541,239.238846 338.510498,234.124893 341.047455,229.010956 
	C341.604889,229.230942 342.162292,229.450943 342.719696,229.670944 
	C342.192352,231.348465 341.786285,233.076447 341.113678,234.693558 
	C339.459351,238.670898 337.771118,242.639938 335.903168,246.519196 
	C335.309845,247.751373 334.106506,248.689819 333.182312,249.762665 
	C332.101196,248.685913 331.020081,247.609161 329.784790,246.188080 
z"/>
<path fill="#080808" opacity="1.000000" stroke="none" 
	d="
M191.706863,246.992096 
	C193.721527,248.318680 194.389343,249.533844 191.697235,249.872330 
	C189.289383,250.175110 186.813400,249.936005 183.907806,249.936005 
	C188.356064,242.927582 188.951584,236.432617 183.919174,229.477341 
	C187.270142,229.477341 190.307190,229.477341 194.045807,229.477341 
	C188.500137,235.092453 189.761673,240.920029 191.706863,246.992096 
z"/>
<path fill="#454545" opacity="1.000000" stroke="none" 
	d="
M174.230133,232.337936 
	C175.143188,234.610550 175.665375,236.742691 176.187576,238.874832 
	C173.418488,239.451157 170.649384,240.027481 167.880295,240.603821 
	C167.442932,238.460983 166.227585,236.111450 166.730499,234.218414 
	C167.769669,230.306946 171.220016,232.137772 174.230133,232.337936 
z"/>
<path fill="#454545" opacity="1.000000" stroke="none" 
	d="
M155.618759,239.871735 
	C154.555008,245.038925 151.585785,247.434311 146.686157,247.004379 
	C142.998306,246.680786 140.509933,244.681839 139.845139,240.877609 
	C139.088501,236.547852 141.668594,232.859329 145.925293,232.064743 
	C150.909088,231.134430 154.209045,233.660248 155.618759,239.871735 
z"/>
<path fill="#464646" opacity="1.000000" stroke="none" 
	d="
M280.921265,235.137665 
	C283.519165,233.933594 286.238800,232.042984 288.304810,232.595718 
	C289.939209,233.032974 290.991455,236.397491 291.733734,238.649445 
	C291.852051,239.008377 289.037384,240.988449 287.478149,241.132782 
	C280.692993,241.760849 279.901520,240.951416 280.921265,235.137665 
z"/>
<path fill="#464646" opacity="1.000000" stroke="none" 
	d="
M350.127563,234.260223 
	C352.299683,233.296555 354.284485,232.076752 356.201050,232.175873 
	C359.589447,232.351059 360.822205,234.986938 360.865967,238.131958 
	C360.917389,241.825958 358.051544,241.165924 355.878693,241.250381 
	C348.952087,241.519638 348.229980,240.669037 350.127563,234.260223 
z"/>
<path fill="#454545" opacity="1.000000" stroke="none" 
	d="
M200.142914,240.669006 
	C200.717422,234.287048 204.041077,231.298019 209.325897,231.980270 
	C213.734589,232.549423 216.720779,236.448105 215.915085,240.809631 
	C215.235291,244.489517 212.859680,246.637390 209.174011,247.011353 
	C204.652771,247.470093 201.515335,245.560486 200.142914,240.669006 
z"/>
</svg>